<?xml version="1.0" encoding="UTF-8" standalone="no"?>
<!-- Created with Inkscape (http://www.inkscape.org/) -->
<svg
  viewBox="0 0 59.5658 35.320148"
  version="1.1"
  id="svg5"
  inkscape:version="1.2.2 (732a01da63, 2022-12-09)"
  sodipodi:docname="logo.svg"
  xmlns:inkscape="http://www.inkscape.org/namespaces/inkscape"
  xmlns:sodipodi="http://sodipodi.sourceforge.net/DTD/sodipodi-0.dtd"
  xmlns="http://www.w3.org/2000/svg"
  xmlns:svg="http://www.w3.org/2000/svg">
  <sodipodi:namedview
    id="namedview7"
    pagecolor="#505050"
    bordercolor="#eeeeee"
    borderopacity="1"
    inkscape:showpageshadow="0"
    inkscape:pageopacity="0"
    inkscape:pagecheckerboard="0"
    inkscape:deskcolor="#505050"
    inkscape:document-units="mm"
    showgrid="false"
    inkscape:zoom="3.659624"
    inkscape:cx="161.35537"
    inkscape:cy="60.66197"
    inkscape:window-width="2560"
    inkscape:window-height="1387"
    inkscape:window-x="3832"
    inkscape:window-y="714"
    inkscape:window-maximized="1"
    inkscape:current-layer="layer1"
  />
  <defs id="defs2"/>
  <g inkscape:label="Layer 1" inkscape:groupmode="layer" id="layer1" transform="translate(-19.246244,-5.3816607)">
    <path
      style="fill:#2a7fff;fill-opacity:1;stroke:#2a7fff;stroke-width:0;stroke-linejoin:miter;stroke-miterlimit:0;stroke-dasharray:none;stroke-opacity:1"
      d="m 46.053796,40.630883 c -1.272442,-0.0544 -3.582363,-0.150876 -5.133154,-0.214384 -6.897349,-0.282466 -12.977305,-0.647763 -13.640314,-0.819541 -0.197993,-0.0513 -0.792831,-0.86337 -2.446192,-3.339534 -3.583446,-5.366769 -5.577669,-10.385275 -5.587849,-14.061952 -0.0049,-1.766764 0.418691,-3.267619 1.275281,-4.518622 0.637874,-0.931581 4.918033,-4.979475 7.421592,-7.018855 2.810615,-2.2895062 4.750016,-3.3924002 6.335689,-3.6029642 1.101661,-0.146292 8.484679,-0.618399 15.895931,-1.016467 8.190332,-0.439913 10.066602,-0.514308 14.752242,-0.5849326 l 4.77512,-0.07197 0.86412,0.2977996 c 1.70329,0.587 2.35952,0.993202 2.95682,1.830237 0.45112,0.632195 0.76829,1.350781 1.08075,2.44857 0.29443,1.0344582 1.90674,7.3293272 2.40287,9.3814392 0.37415,1.547554 0.68889,2.943207 0.9454,4.198409 1.01272,4.955765 1.1175,7.722182 0.38539,9.004062 -0.29445,0.51557 -1.42163,1.743353 -2.41986,2.635845 -1.81283,1.620806 -3.40257,2.630384 -4.48725,2.849668 -1.29568,0.261941 -6.63794,0.966881 -13.95351,1.841241 -7.414297,0.886164 -7.845385,0.914919 -11.423076,0.761955 z"
      id="path3111"
      sodipodi:nodetypes="sssssssssscssssssssss"
    />
    <circle
      id="path4659"
      style="fill:#ffffff;stroke:#2a7fff;stroke-width:0.264583"
      cx="38.622097"
      cy="21.865595"
      r="0"
    />
    <path
      style="fill:#ffffff;stroke:#2a7fff;stroke-width:0;stroke-miterlimit:0"
      id="path6365"
      d="m 34.508674,32.307229 c 1.134088,-1.895583 2.189805,-3.843959 3.121617,-5.847585 0.741412,-1.594217 1.351798,-3.026083 1.801119,-4.72829 0.198695,-0.752736 0.303039,-1.527263 0.454559,-2.290895 0.167611,-1.819225 0.194683,-1.640679 0.209253,-3.221184 0.0021,-0.227516 -1.377732,-0.48769 -1.604175,-0.465546 -2.87254,0.379544 -2.501371,0.713611 -1.95965,3.126644 0.187497,0.941855 0.436766,1.870352 0.65515,2.805529 0.425894,1.252847 1.019397,3.545728 2.015626,4.624306 0.511977,0.554296 1.130829,1.130477 1.871801,1.273044 2.088661,0.40187 3.384064,-0.605462 4.671478,-1.994877 0.581305,-0.627362 0.999244,-1.388346 1.498864,-2.082519 0.408589,-0.831512 0.87298,-1.637857 1.225765,-2.494534 0.569957,-1.384034 0.949362,-2.814222 1.116105,-4.299444 0.04515,-0.402133 0.269674,-0.904717 0.0087,-1.213948 -0.689499,-0.816886 -1.963132,-1.430476 -2.969715,-1.070614 -1.680763,1.115451 -1.456651,3.747378 -1.458403,5.483669 0.0056,2.208031 0.164714,4.316794 0.715017,6.465617 0.368583,1.439244 1.049303,3.282425 2.197049,4.351793 0.513271,0.478219 1.206569,0.716063 1.809856,1.074094 1.288434,0.36489 1.275503,0.0069 1.913258,0.01035 3.929164,-2.99674 -1.198734,-3.352572 -1.982931,-6.142075 -0.719833,-2.674753 -0.740931,-5.459444 -0.54225,-8.200107 -5.535205,-1.33185 -3.061078,-1.072592 -5.317281,3.752729 -0.320179,0.485658 -0.626255,0.980913 -0.960536,1.456974 -1.157477,2.24531 -0.94438,0.8433 -1.918944,-1.911582 -0.199212,-0.837629 -0.42662,-1.669051 -0.597638,-2.512889 -0.137676,-0.679322 0.267276,-1.69798 -0.327796,-2.0534 -4.682261,-2.796583 -4.053883,-1.674071 -4.05842,-0.06846 0.02049,0.866749 -0.07452,1.75628 -0.138684,2.553615 -0.110561,0.604004 -0.18034,1.216917 -0.331682,1.812014 -0.385876,1.517319 -0.918433,2.758426 -1.578811,4.182433 -0.880233,1.89809 -1.877922,3.7443 -2.951411,5.539343 -1.474883,2.413445 1.938244,4.499246 3.413128,2.085801 z"
      sodipodi:nodetypes="csscscccssscsscccsscccccccssccssccc"
    />
    <path
      style="fill:#ffffff;stroke:#2a7fff;stroke-width:0;stroke-miterlimit:0"
      id="path6367"
      d="m 59.371938,31.192104 c 0.142748,-0.60646 0.29468,-1.210833 0.428247,-1.81938 0.511823,-2.331895 0.798147,-3.693217 1.046282,-6.165309 0.521798,-5.198522 0.204734,-4.3084 0.611928,-9.202008 0.962982,-3.573768 -2.67778,-1.780086 -1.913006,-0.58684 0.276876,0.464361 0.578929,0.914236 0.836274,1.389697 0.952846,1.760441 1.18328,2.496199 1.993217,4.467849 1.008803,2.573629 1.934707,5.184119 3.062414,7.709966 0.377839,0.84629 0.755997,1.634115 1.260671,2.404587 0.117951,0.180072 0.840499,1.209117 0.393171,0.512313 l 2.371759,0.55541 c 2.619822,-1.066086 1.11215,-4.771072 -1.507672,-3.704986 v 0 l 2.229141,0.613446 c -0.02021,-0.01374 -0.047,-0.02095 -0.06067,-0.04122 C 69.69706,26.692944 69.454855,26.17408 69.123361,25.432726 67.998146,22.916292 67.081434,20.312447 66.072077,17.74944 65.674549,16.791234 65.307103,15.819987 64.879492,14.874822 64.288635,13.568829 63.652608,12.396875 62.875987,11.203368 62.589986,10.763842 62.472241,10.065518 61.969046,9.9179578 60.823384,9.5819973 59.525198,9.5252317 58.387461,9.8871264 57.912402,10.038236 57.97959,10.796913 57.775654,11.251806 c -0.103362,0.838067 -0.239675,1.672725 -0.310089,2.514202 -0.403256,4.819196 -0.08868,3.855665 -0.580985,8.890556 -0.228288,2.334717 -0.49253,3.588384 -0.978061,5.800002 -0.13715,0.624718 -0.292886,1.245211 -0.439328,1.867816 -0.613574,2.761074 3.291176,3.628796 3.904747,0.867722 z"
      sodipodi:nodetypes="cssccscssccscccscssssccsscc"
    />
    <path
      style="fill:#ffffff;stroke:#2a7fff;stroke-width:0;stroke-miterlimit:0"
      id="path6369"
      d="m 58.927978,26.576721 c 1.78874,-0.636272 2.894198,-1.047049 4.89268,-1.633919 1.32115,-0.387967 2.659166,-0.716006 3.98875,-1.074008 2.730707,-0.73705 1.688362,-4.598852 -1.042344,-3.861803 v 0 c -3.426722,0.927044 -6.906961,1.767649 -10.132936,3.292803 -2.317136,1.621996 -0.02328,4.898924 2.29385,3.276927 z"
    />
  </g>
</svg>
